<svg xmlns="http://www.w3.org/2000/svg" viewBox="0 0 400 300" width="400" height="300">
  <defs>
    <linearGradient id="eb-tela" x1="0%" y1="0%" x2="100%" y2="100%">
      <stop offset="0%" stop-color="#2e6fd6"/>
      <stop offset="100%" stop-color="#5b9bef"/>
    </linearGradient>
    <linearGradient id="eb-torre" x1="0%" y1="0%" x2="0%" y2="100%">
      <stop offset="0%" stop-color="#204163"/>
      <stop offset="100%" stop-color="#152534"/>
    </linearGradient>
    <radialGradient id="eb-fan" cx="50%" cy="50%" r="50%">
      <stop offset="0%" stop-color="#8fc0ff" stop-opacity="0.9"/>
      <stop offset="70%" stop-color="#5b9bef" stop-opacity="0.35"/>
      <stop offset="100%" stop-color="#5b9bef" stop-opacity="0"/>
    </radialGradient>
    <radialGradient id="eb-shadow" cx="50%" cy="50%" r="50%">
      <stop offset="0%" stop-color="#0b1a26" stop-opacity="0.16"/>
      <stop offset="100%" stop-color="#0b1a26" stop-opacity="0"/>
    </radialGradient>
  </defs>

  <ellipse cx="200" cy="234" rx="175" ry="16" fill="url(#eb-shadow)"/>

  <!-- Monitor -->
  <rect x="95" y="70" width="180" height="120" rx="10" fill="#152534"/>
  <rect x="107" y="82" width="156" height="96" rx="4" fill="url(#eb-tela)"/>
  <path d="M107 178 L263 178 L263 150 Z" fill="#ffffff" opacity="0.06"/>
  <rect x="120" y="94" width="90" height="8" rx="4" fill="#ffffff" opacity="0.9"/>
  <rect x="120" y="110" width="130" height="6" rx="3" fill="#ffffff" opacity="0.55"/>
  <rect x="120" y="122" width="110" height="6" rx="3" fill="#ffffff" opacity="0.55"/>
  <rect x="120" y="134" width="70" height="6" rx="3" fill="#ffffff" opacity="0.55"/>
  <rect x="107" y="187" width="156" height="3" rx="1.5" fill="#5b9bef"/>
  <rect x="175" y="190" width="20" height="18" fill="#152534"/>
  <rect x="150" y="208" width="70" height="8" rx="4" fill="#152534"/>

  <!-- Torre -->
  <circle cx="325" cy="130" r="26" fill="url(#eb-fan)"/>
  <rect x="290" y="95" width="70" height="130" rx="8" fill="url(#eb-torre)"/>
  <rect x="300" y="110" width="50" height="6" rx="3" fill="#5b9bef"/>
  <circle cx="325" cy="130" r="10" fill="#0b1a26"/>
  <circle cx="325" cy="130" r="10" fill="none" stroke="#5b9bef" stroke-width="1.2"/>
  <circle cx="325" cy="130" r="4.5" fill="#8fc0ff"/>
  <rect x="300" y="150" width="50" height="4" rx="2" fill="#0b1a26"/>
  <rect x="300" y="160" width="50" height="4" rx="2" fill="#0b1a26"/>
  <rect x="300" y="170" width="50" height="4" rx="2" fill="#0b1a26"/>
  <rect x="293" y="215" width="64" height="3" rx="1.5" fill="#5b9bef" opacity="0.7"/>

  <!-- Teclado e mouse -->
  <rect x="55" y="200" width="110" height="24" rx="6" fill="#dbe1ea"/>
  <rect x="61" y="205" width="98" height="4" rx="2" fill="#ffffff" opacity="0.7"/>
  <rect x="230" y="205" width="26" height="16" rx="7" fill="#dbe1ea"/>
</svg>
